<?xml version="1.0" encoding="UTF-8"?>
<svg width="200" height="150" version="1.0" viewBox="50 130 300 100" xmlns="http://www.w3.org/2000/svg" zoomAndPan="magnify">
<defs/>

<g fill="#fdcf81">
<g transform="translate(79.124 197.29)">
<path d="m25.668-10.27c0-11.184-19.48-8.4336-19.48-15.629 0-2.6602 2.75-4.3086 6.9219-4.3086 6.0508 0 10.223 3.207 10.223 9.5781h0.50391c0-6.7812-4.3555-10.176-10.727-10.176-6.9219 0-11.367 4.082-11.367 9.9492 0 12.695 19.48 8.8906 19.48 16.043 0 2.7969-2.75 4.2148-6.9648 4.2148-6.8789 0-11.738-4.2617-11.738-10.496h-0.59375c0 6.832 5.3164 11.094 11.965 11.094 7.1055 0 11.777-4.4023 11.777-10.27z"/>
</g>
</g>
<g fill="#fdcf81">
<g transform="translate(103.58 197.29)">
<path d="m33.234-15.539c0-9.168-8.207-15.266-15.816-15.266-7.5625 0-15.812 6.0977-15.812 15.266 0 9.3047 8.25 15.539 15.812 15.539 7.6094 0 15.816-6.2344 15.816-15.539zm-20.949 0c0-9.9922 1.4648-14.668 5.1328-14.668s5.1797 4.6758 5.1797 14.668c0 10.129-1.5117 14.941-5.1797 14.941s-5.1328-4.8125-5.1328-14.941z"/>
</g>
</g>
<g fill="#fdcf81">
<g transform="translate(135.65 197.29)">
<path d="m3.1172-41.438v31.352c0 5.5938 4.5391 10.086 10.086 10.086v-31.398c0-5.5469-4.4922-10.039-10.086-10.039z"/>
</g>
</g>
<g fill="#fdcf81">
<g transform="translate(149.1 197.29)">
<path d="m25.668-10.27c0-11.184-19.48-8.4336-19.48-15.629 0-2.6602 2.75-4.3086 6.9219-4.3086 6.0508 0 10.223 3.207 10.223 9.5781h0.50391c0-6.7812-4.3555-10.176-10.727-10.176-6.9219 0-11.367 4.082-11.367 9.9492 0 12.695 19.48 8.8906 19.48 16.043 0 2.7969-2.75 4.2148-6.9648 4.2148-6.8789 0-11.738-4.2617-11.738-10.496h-0.59375c0 6.832 5.3164 11.094 11.965 11.094 7.1055 0 11.777-4.4023 11.777-10.27z"/>
</g>
</g>
<g fill="#fdcf81">
<g transform="translate(173.56 197.29)">
<path d="m23.332-11.047h-0.59766c-0.17969 6.5078-3.4805 8.5273-5.5 8.5273-2.1523 0-2.8398-1.2383-2.8398-4.1719v-22.875h8.3398v-0.59375h-8.3398c0-4.2656-3.4375-7.7031-7.7031-7.7031h-2.3828v7.7031h-4.0352v0.59375h4.0352v19.848c0 7.5625 5.043 9.7188 9.5352 9.7188 4.4453 0 9.4883-3.0234 9.4883-11.047z"/>
</g>
</g>
<g fill="#fdcf81">
<g transform="translate(194.9 197.29)">
<path d="m13.613-39.789c0-2.9805-2.1992-5.4531-5.5898-5.4531-3.3008 0-5.5039 2.4727-5.5039 5.4531 0 2.9336 2.2031 5.457 5.5039 5.457 3.3906 0 5.5898-2.5234 5.5898-5.457zm-10.543 10.176v19.527c0 5.5938 4.4922 10.086 10.086 10.086v-19.527c0-5.5938-4.5391-10.086-10.086-10.086z"/>
</g>
</g>
<g fill="#fdcf81">
<g transform="translate(208.27 197.29)">
<path d="m31.172-12.422h-0.55078c0.046875 5.957-2.9805 9.9922-8.4805 9.9922-5.9609 0-9.8555-5.2266-9.8555-13.109 0-8.7539 3.1641-13.66 9.0742-13.66 3.7148 0 8.7109 2.8398 9.3086 10.633h0.50391c-0.59766-8.7539-6.6953-12.238-13.434-12.238-8.4336 0-16.133 5.4102-16.133 15.219 0 10.133 8.0664 15.586 16.777 15.586 8.0664 0 12.789-4.9492 12.789-12.422z"/>
</g>
</g>
<g fill="#fdcf81">
<g transform="translate(238.22 197.29)">
<path d="m31.492-11.094h-0.55078c-0.64062 6.6914-4.7227 9.4453-9.3516 9.4453-5.8672 0-9.3047-3.5312-9.3047-13.66h18.793c0.27734-11.004-6.2773-15.496-13.887-15.496-9.168 0-15.586 6.1445-15.586 15.355 0 9.2617 6.9219 15.449 17.004 15.449 6.832 0 12.195-3.3906 12.883-11.094zm-14.348-19.113c4.4922 0 4.1719 9.3945 4.1719 14.348h-9.0312c0.046875-9.2617 1.4219-14.348 4.8594-14.348z"/>
</g>
</g>
<g fill="#fdcf81">
<g transform="translate(268.55 197.29)">
<path d="m25.668-10.27c0-11.184-19.48-8.4336-19.48-15.629 0-2.6602 2.75-4.3086 6.9219-4.3086 6.0508 0 10.223 3.207 10.223 9.5781h0.50391c0-6.7812-4.3555-10.176-10.727-10.176-6.9219 0-11.367 4.082-11.367 9.9492 0 12.695 19.48 8.8906 19.48 16.043 0 2.7969-2.75 4.2148-6.9648 4.2148-6.8789 0-11.738-4.2617-11.738-10.496h-0.59375c0 6.832 5.3164 11.094 11.965 11.094 7.1055 0 11.777-4.4023 11.777-10.27z"/>
</g>
</g>
<g>
<g transform="translate(194.37 210.4)">
<path d="m5.5781-5.7656c0.10156 0 0.1875 0.039063 0.25 0.10938 0.0625 0.0625 0.09375 0.14062 0.09375 0.23438v5.0781c0 0.10547-0.03125 0.1875-0.09375 0.25s-0.14844 0.09375-0.25 0.09375c-0.09375 0-0.17969-0.03125-0.25-0.09375-0.0625-0.0625-0.09375-0.14453-0.09375-0.25v-0.75c-0.1875 0.33594-0.46875 0.62109-0.84375 0.85938-0.375 0.23047-0.78906 0.34375-1.2344 0.34375-0.5 0-0.95312-0.12891-1.3594-0.39062-0.39844-0.25781-0.71094-0.61719-0.9375-1.0781-0.23047-0.46875-0.34375-0.98828-0.34375-1.5625 0-0.5625 0.11328-1.0703 0.34375-1.5312 0.22656-0.45703 0.54688-0.8125 0.95312-1.0625 0.40625-0.25781 0.85156-0.39062 1.3438-0.39062 0.44531 0 0.85938 0.10938 1.2344 0.32812s0.65625 0.50781 0.84375 0.85938v-0.70312c0-0.09375 0.03125-0.17188 0.09375-0.23438 0.070313-0.070312 0.15625-0.10938 0.25-0.10938zm-2.3438 5.25c0.38281 0 0.73438-0.10156 1.0469-0.3125 0.3125-0.20703 0.55469-0.49219 0.73438-0.85938 0.17578-0.36328 0.26562-0.77344 0.26562-1.2344 0-0.42578-0.089844-0.82031-0.26562-1.1875-0.17969-0.36328-0.42188-0.64844-0.73438-0.85938-0.3125-0.20703-0.66406-0.3125-1.0469-0.3125-0.39844 0-0.75 0.10547-1.0625 0.3125-0.3125 0.19922-0.55859 0.48047-0.73438 0.84375-0.17969 0.35547-0.26562 0.75781-0.26562 1.2031 0 0.46094 0.082031 0.87109 0.25 1.2344 0.17578 0.36719 0.42188 0.65234 0.73438 0.85938 0.3125 0.21094 0.67188 0.3125 1.0781 0.3125z"/>
</g>
</g>
<g>
<g transform="translate(201.85 210.4)">
<path d="m2.0156-5.125v3.7969c0 0.28125 0.050781 0.47656 0.15625 0.57812 0.11328 0.10547 0.25391 0.15625 0.42188 0.15625 0.050781 0 0.10938-0.007812 0.17188-0.03125 0.070313-0.019531 0.125-0.03125 0.15625-0.03125 0.070313 0 0.12891 0.03125 0.17188 0.09375 0.050781 0.054688 0.078125 0.11719 0.078125 0.1875 0 0.10547-0.0625 0.19531-0.1875 0.26562-0.11719 0.074219-0.25781 0.10938-0.42188 0.10938-0.19922 0-0.38281-0.015625-0.54688-0.046875-0.15625-0.039062-0.30859-0.15625-0.45312-0.34375-0.14844-0.1875-0.21875-0.48828-0.21875-0.90625v-3.8281h-0.82812c-0.085937 0-0.16406-0.023438-0.23438-0.078125-0.0625-0.0625-0.09375-0.14062-0.09375-0.23438 0-0.082031 0.03125-0.15625 0.09375-0.21875 0.070312-0.0625 0.14844-0.09375 0.23438-0.09375h0.82812v-1.25c0-0.10156 0.03125-0.1875 0.09375-0.25s0.14453-0.09375 0.25-0.09375c0.09375 0 0.17188 0.03125 0.23438 0.09375s0.09375 0.14844 0.09375 0.25v1.25h1.1406c0.082031 0 0.15625 0.039062 0.21875 0.10938 0.0625 0.0625 0.09375 0.13672 0.09375 0.21875 0 0.09375-0.03125 0.16797-0.09375 0.21875-0.0625 0.054687-0.13672 0.078125-0.21875 0.078125z"/>
</g>
</g>
<g>
<g transform="translate(206.36 210.4)">
<path d="m5.7656-3.2188c0 0.09375-0.039063 0.17188-0.10938 0.23438-0.0625 0.0625-0.13672 0.09375-0.21875 0.09375h-4.2812c0 0.44922 0.09375 0.85547 0.28125 1.2188 0.1875 0.35547 0.45312 0.63672 0.79688 0.84375 0.34375 0.21094 0.75 0.3125 1.2188 0.3125 0.35156 0 0.67188-0.070313 0.95312-0.21875 0.28906-0.15625 0.52344-0.35156 0.70312-0.59375 0.082031-0.0625 0.16016-0.09375 0.23438-0.09375 0.070312 0 0.14062 0.03125 0.20312 0.09375 0.0625 0.054687 0.09375 0.12109 0.09375 0.20312 0 0.085938-0.039063 0.16406-0.10938 0.23438-0.25 0.29297-0.55859 0.53125-0.92188 0.71875-0.36719 0.1875-0.75 0.28125-1.1562 0.28125-0.57422 0-1.0859-0.11719-1.5312-0.35938-0.44922-0.25-0.79688-0.59766-1.0469-1.0469-0.24219-0.45703-0.35938-0.97656-0.35938-1.5625 0-0.61328 0.11719-1.1484 0.35938-1.6094 0.25-0.46875 0.57812-0.82031 0.98438-1.0625 0.40625-0.25 0.83594-0.375 1.2969-0.375 0.44531 0 0.86719 0.10547 1.2656 0.3125 0.39453 0.21094 0.71875 0.51562 0.96875 0.92188s0.375 0.89062 0.375 1.4531zm-2.6094-2.0312c-0.4375 0-0.84375 0.15234-1.2188 0.45312-0.375 0.30469-0.61719 0.73438-0.71875 1.2969h3.8594v-0.09375c-0.042969-0.33203-0.15625-0.625-0.34375-0.875-0.1875-0.25781-0.42188-0.45312-0.70312-0.57812-0.28125-0.13281-0.57422-0.20312-0.875-0.20312z"/>
</g>
</g>
<g>
<g transform="translate(213.32 210.4)">
<path d="m1.6406-0.34375c0 0.10547-0.03125 0.1875-0.09375 0.25s-0.14844 0.09375-0.25 0.09375c-0.09375 0-0.17969-0.03125-0.25-0.09375-0.0625-0.0625-0.09375-0.14453-0.09375-0.25v-7.6719c0-0.10156 0.03125-0.1875 0.09375-0.25 0.070313-0.0625 0.15625-0.09375 0.25-0.09375 0.10156 0 0.1875 0.03125 0.25 0.09375s0.09375 0.14844 0.09375 0.25z"/>
</g>
</g>
<g>
<g transform="translate(216.59 210.4)">
<path d="m1.5469-0.34375c0 0.10547-0.03125 0.1875-0.09375 0.25s-0.14844 0.09375-0.25 0.09375c-0.09375 0-0.17188-0.03125-0.23438-0.09375s-0.09375-0.14453-0.09375-0.25v-5.1875c0-0.10156 0.03125-0.1875 0.09375-0.25s0.14062-0.09375 0.23438-0.09375c0.10156 0 0.1875 0.03125 0.25 0.09375s0.09375 0.14844 0.09375 0.25zm-0.34375-6.2812c-0.14844 0-0.26172-0.035156-0.34375-0.10938-0.085937-0.070313-0.125-0.17578-0.125-0.3125v-0.10938c0-0.13281 0.039063-0.23828 0.125-0.3125 0.082031-0.070312 0.20312-0.10938 0.35938-0.10938 0.30078 0 0.45312 0.14062 0.45312 0.42188v0.10938c0 0.13672-0.042969 0.24219-0.125 0.3125-0.074219 0.074219-0.1875 0.10938-0.34375 0.10938z"/>
</g>
</g>
<g>
<g transform="translate(219.69 210.4)">
<path d="m5.7656-3.2188c0 0.09375-0.039063 0.17188-0.10938 0.23438-0.0625 0.0625-0.13672 0.09375-0.21875 0.09375h-4.2812c0 0.44922 0.09375 0.85547 0.28125 1.2188 0.1875 0.35547 0.45312 0.63672 0.79688 0.84375 0.34375 0.21094 0.75 0.3125 1.2188 0.3125 0.35156 0 0.67188-0.070313 0.95312-0.21875 0.28906-0.15625 0.52344-0.35156 0.70312-0.59375 0.082031-0.0625 0.16016-0.09375 0.23438-0.09375 0.070312 0 0.14062 0.03125 0.20312 0.09375 0.0625 0.054687 0.09375 0.12109 0.09375 0.20312 0 0.085938-0.039063 0.16406-0.10938 0.23438-0.25 0.29297-0.55859 0.53125-0.92188 0.71875-0.36719 0.1875-0.75 0.28125-1.1562 0.28125-0.57422 0-1.0859-0.11719-1.5312-0.35938-0.44922-0.25-0.79688-0.59766-1.0469-1.0469-0.24219-0.45703-0.35938-0.97656-0.35938-1.5625 0-0.61328 0.11719-1.1484 0.35938-1.6094 0.25-0.46875 0.57812-0.82031 0.98438-1.0625 0.40625-0.25 0.83594-0.375 1.2969-0.375 0.44531 0 0.86719 0.10547 1.2656 0.3125 0.39453 0.21094 0.71875 0.51562 0.96875 0.92188s0.375 0.89062 0.375 1.4531zm-2.6094-2.0312c-0.4375 0-0.84375 0.15234-1.2188 0.45312-0.375 0.30469-0.61719 0.73438-0.71875 1.2969h3.8594v-0.09375c-0.042969-0.33203-0.15625-0.625-0.34375-0.875-0.1875-0.25781-0.42188-0.45312-0.70312-0.57812-0.28125-0.13281-0.57422-0.20312-0.875-0.20312z"/>
</g>
</g>
<g>
<g transform="translate(226.65 210.4)">
<path d="m3.5938-5.9062c0.14453 0 0.28125 0.03125 0.40625 0.09375 0.125 0.054688 0.1875 0.14062 0.1875 0.26562 0 0.10547-0.03125 0.1875-0.09375 0.25s-0.13672 0.09375-0.21875 0.09375c-0.042969 0-0.12109-0.015625-0.23438-0.046875-0.10547-0.039062-0.20312-0.0625-0.29688-0.0625-0.28125 0-0.5625 0.10938-0.84375 0.32812-0.27344 0.21094-0.49609 0.48438-0.67188 0.82812-0.17969 0.33594-0.26562 0.67969-0.26562 1.0312v2.7812c0 0.10547-0.03125 0.1875-0.09375 0.25s-0.14062 0.09375-0.23438 0.09375c-0.10547 0-0.1875-0.03125-0.25-0.09375s-0.09375-0.14453-0.09375-0.25v-5.0625c0-0.09375 0.03125-0.17188 0.09375-0.23438s0.14453-0.09375 0.25-0.09375c0.09375 0 0.17188 0.03125 0.23438 0.09375s0.09375 0.14062 0.09375 0.23438v1c0.17578-0.42578 0.4375-0.78125 0.78125-1.0625 0.35156-0.28125 0.76953-0.42578 1.25-0.4375z"/>
</g>
</g>
<g>
<g transform="translate(231.68 210.4)">
<path d="m0.5625-0.92188c-0.0625-0.09375-0.09375-0.17188-0.09375-0.23438 0-0.10156 0.050781-0.17969 0.15625-0.23438 0.039062-0.039063 0.097656-0.0625 0.17188-0.0625 0.09375 0 0.17578 0.039063 0.25 0.10938 0.44531 0.58594 1.0391 0.875 1.7812 0.875 0.35156 0 0.66406-0.082031 0.9375-0.25 0.26953-0.16406 0.40625-0.41016 0.40625-0.73438 0-0.32031-0.125-0.5625-0.375-0.71875s-0.60156-0.28906-1.0469-0.40625c-0.625-0.15625-1.1172-0.35938-1.4688-0.60938-0.35547-0.25-0.53125-0.61719-0.53125-1.1094 0-0.3125 0.085938-0.58594 0.26562-0.82812 0.17578-0.25 0.41016-0.44141 0.70312-0.57812 0.30078-0.13281 0.64062-0.20312 1.0156-0.20312 0.32031 0 0.64453 0.0625 0.96875 0.1875 0.33203 0.125 0.61328 0.32422 0.84375 0.59375 0.070313 0.054688 0.10938 0.125 0.10938 0.21875s-0.039062 0.17188-0.10938 0.23438c-0.054687 0.054687-0.12109 0.078125-0.20312 0.078125-0.085938 0-0.15234-0.03125-0.20312-0.09375-0.1875-0.20703-0.40625-0.36328-0.65625-0.46875-0.24219-0.10156-0.50781-0.15625-0.79688-0.15625-0.35547 0-0.65625 0.085938-0.90625 0.25-0.25 0.16797-0.375 0.41797-0.375 0.75 0.007812 0.30469 0.14453 0.53125 0.40625 0.6875 0.25781 0.15625 0.64062 0.29688 1.1406 0.42188 0.39453 0.10547 0.71875 0.21875 0.96875 0.34375 0.25781 0.11719 0.46875 0.28125 0.625 0.5 0.16406 0.21875 0.25 0.51172 0.25 0.875 0 0.49219-0.19922 0.88281-0.59375 1.1719-0.38672 0.28125-0.87109 0.42188-1.4531 0.42188-0.91797 0-1.6484-0.34375-2.1875-1.0312z"/>
</g>
</g>
<g>
<g transform="translate(237.65 210.4)"/>
</g>
<g>
<g transform="translate(241.42 210.4)">
<path d="m0.5625-0.92188c-0.0625-0.09375-0.09375-0.17188-0.09375-0.23438 0-0.10156 0.050781-0.17969 0.15625-0.23438 0.039062-0.039063 0.097656-0.0625 0.17188-0.0625 0.09375 0 0.17578 0.039063 0.25 0.10938 0.44531 0.58594 1.0391 0.875 1.7812 0.875 0.35156 0 0.66406-0.082031 0.9375-0.25 0.26953-0.16406 0.40625-0.41016 0.40625-0.73438 0-0.32031-0.125-0.5625-0.375-0.71875s-0.60156-0.28906-1.0469-0.40625c-0.625-0.15625-1.1172-0.35938-1.4688-0.60938-0.35547-0.25-0.53125-0.61719-0.53125-1.1094 0-0.3125 0.085938-0.58594 0.26562-0.82812 0.17578-0.25 0.41016-0.44141 0.70312-0.57812 0.30078-0.13281 0.64062-0.20312 1.0156-0.20312 0.32031 0 0.64453 0.0625 0.96875 0.1875 0.33203 0.125 0.61328 0.32422 0.84375 0.59375 0.070313 0.054688 0.10938 0.125 0.10938 0.21875s-0.039062 0.17188-0.10938 0.23438c-0.054687 0.054687-0.12109 0.078125-0.20312 0.078125-0.085938 0-0.15234-0.03125-0.20312-0.09375-0.1875-0.20703-0.40625-0.36328-0.65625-0.46875-0.24219-0.10156-0.50781-0.15625-0.79688-0.15625-0.35547 0-0.65625 0.085938-0.90625 0.25-0.25 0.16797-0.375 0.41797-0.375 0.75 0.007812 0.30469 0.14453 0.53125 0.40625 0.6875 0.25781 0.15625 0.64062 0.29688 1.1406 0.42188 0.39453 0.10547 0.71875 0.21875 0.96875 0.34375 0.25781 0.11719 0.46875 0.28125 0.625 0.5 0.16406 0.21875 0.25 0.51172 0.25 0.875 0 0.49219-0.19922 0.88281-0.59375 1.1719-0.38672 0.28125-0.87109 0.42188-1.4531 0.42188-0.91797 0-1.6484-0.34375-2.1875-1.0312z"/>
</g>
</g>
<g>
<g transform="translate(247.39 210.4)">
<path d="m1.5469-0.34375c0 0.10547-0.03125 0.1875-0.09375 0.25s-0.14844 0.09375-0.25 0.09375c-0.09375 0-0.17188-0.03125-0.23438-0.09375s-0.09375-0.14453-0.09375-0.25v-5.1875c0-0.10156 0.03125-0.1875 0.09375-0.25s0.14062-0.09375 0.23438-0.09375c0.10156 0 0.1875 0.03125 0.25 0.09375s0.09375 0.14844 0.09375 0.25zm-0.34375-6.2812c-0.14844 0-0.26172-0.035156-0.34375-0.10938-0.085937-0.070313-0.125-0.17578-0.125-0.3125v-0.10938c0-0.13281 0.039063-0.23828 0.125-0.3125 0.082031-0.070312 0.20312-0.10938 0.35938-0.10938 0.30078 0 0.45312 0.14062 0.45312 0.42188v0.10938c0 0.13672-0.042969 0.24219-0.125 0.3125-0.074219 0.074219-0.1875 0.10938-0.34375 0.10938z"/>
</g>
</g>
<g>
<g transform="translate(250.49 210.4)">
<path d="m3.6094-5.9062c0.70703 0 1.2227 0.21094 1.5469 0.625 0.33203 0.40625 0.5 0.94922 0.5 1.625v3.3125c0 0.10547-0.039062 0.1875-0.10938 0.25-0.074219 0.0625-0.15234 0.09375-0.23438 0.09375-0.10547 0-0.1875-0.03125-0.25-0.09375s-0.09375-0.14453-0.09375-0.25v-3.2812c0-0.48828-0.125-0.88281-0.375-1.1875-0.24219-0.3125-0.61719-0.46875-1.125-0.46875-0.32422 0-0.63281 0.078125-0.92188 0.23438-0.29297 0.14844-0.53125 0.35156-0.71875 0.60938-0.17969 0.25-0.26562 0.52344-0.26562 0.8125v3.2812c0 0.10547-0.03125 0.1875-0.09375 0.25s-0.14062 0.09375-0.23438 0.09375c-0.10547 0-0.1875-0.03125-0.25-0.09375s-0.09375-0.14453-0.09375-0.25v-5.0625c0-0.09375 0.03125-0.17188 0.09375-0.23438s0.14453-0.09375 0.25-0.09375c0.09375 0 0.17188 0.03125 0.23438 0.09375s0.09375 0.14062 0.09375 0.23438v0.625c0.20703-0.32031 0.5-0.58594 0.875-0.79688 0.38281-0.21875 0.77344-0.32812 1.1719-0.32812z"/>
</g>
</g>
<g>
<g transform="translate(257.7 210.4)">
<path d="m5.7656-5.7656c0.10156 0 0.1875 0.03125 0.25 0.09375s0.09375 0.14844 0.09375 0.25v4.8906c0 0.58203-0.125 1.082-0.375 1.5-0.24219 0.42578-0.57422 0.75-1 0.96875-0.42969 0.21875-0.91406 0.32812-1.4531 0.32812-0.27344 0-0.55469-0.039063-0.84375-0.10938-0.28125-0.0625-0.52734-0.15234-0.73438-0.26562-0.21094-0.10547-0.32812-0.21484-0.35938-0.32812-0.054688-0.054688-0.078125-0.10938-0.078125-0.17188 0-0.074219 0.03125-0.13672 0.09375-0.1875 0.03125-0.023437 0.070313-0.03125 0.125-0.03125 0.039063 0 0.125 0.023437 0.25 0.078125l0.25 0.10938c0.45703 0.17578 0.89062 0.26562 1.2969 0.26562 0.67578 0 1.2031-0.19531 1.5781-0.57812 0.38281-0.375 0.57812-0.88672 0.57812-1.5312v-0.70312c-0.1875 0.40625-0.48438 0.72656-0.89062 0.95312-0.40625 0.23047-0.83594 0.34375-1.2812 0.34375-0.52344 0-0.99219-0.12891-1.4062-0.39062-0.41797-0.25781-0.74609-0.61719-0.98438-1.0781-0.24219-0.45703-0.35938-0.97266-0.35938-1.5469 0-0.5625 0.11719-1.0703 0.35938-1.5312 0.23828-0.45703 0.56641-0.81641 0.98438-1.0781 0.41406-0.25781 0.87891-0.39062 1.3906-0.39062 0.47656 0 0.91406 0.12109 1.3125 0.35938 0.39453 0.23047 0.6875 0.51172 0.875 0.84375v-0.71875c0-0.09375 0.03125-0.17188 0.09375-0.23438 0.0625-0.070312 0.14062-0.10938 0.23438-0.10938zm-2.4375 5.25c0.40625 0 0.76953-0.097656 1.0938-0.29688 0.33203-0.20703 0.59375-0.49219 0.78125-0.85938 0.1875-0.36328 0.28125-0.77344 0.28125-1.2344 0-0.45703-0.09375-0.86328-0.28125-1.2188-0.1875-0.36328-0.44922-0.64453-0.78125-0.84375-0.32422-0.20703-0.6875-0.3125-1.0938-0.3125s-0.77734 0.10547-1.1094 0.3125c-0.32422 0.21094-0.57812 0.49609-0.76562 0.85938-0.1875 0.36719-0.28125 0.76562-0.28125 1.2031 0 0.46094 0.09375 0.87109 0.28125 1.2344 0.1875 0.35547 0.44141 0.63672 0.76562 0.84375 0.33203 0.21094 0.70312 0.3125 1.1094 0.3125z"/>
</g>
</g>
<g>
<g transform="translate(265.38 210.4)">
<path d="m5.2031-5.7344c0.10156 0 0.1875 0.03125 0.25 0.09375s0.09375 0.14062 0.09375 0.23438v3.1875c0 0.74219-0.21094 1.3086-0.625 1.7031-0.41797 0.39844-0.99219 0.59375-1.7188 0.59375-0.71875 0-1.2891-0.19531-1.7031-0.59375-0.40625-0.39453-0.60938-0.96094-0.60938-1.7031v-3.1875c0-0.09375 0.03125-0.17188 0.09375-0.23438s0.14453-0.09375 0.25-0.09375c0.09375 0 0.17188 0.03125 0.23438 0.09375s0.09375 0.14062 0.09375 0.23438v3.1875c0 0.54297 0.14062 0.96094 0.42188 1.25 0.28906 0.28125 0.69531 0.42188 1.2188 0.42188 0.53125 0 0.94141-0.14062 1.2344-0.42188 0.28906-0.28906 0.4375-0.70703 0.4375-1.25v-3.1875c0-0.09375 0.03125-0.17188 0.09375-0.23438s0.14062-0.09375 0.23438-0.09375z"/>
</g>
</g>
<g>
<g transform="translate(272.49 210.4)">
<path d="m1.6406-0.34375c0 0.10547-0.03125 0.1875-0.09375 0.25s-0.14844 0.09375-0.25 0.09375c-0.09375 0-0.17969-0.03125-0.25-0.09375-0.0625-0.0625-0.09375-0.14453-0.09375-0.25v-7.6719c0-0.10156 0.03125-0.1875 0.09375-0.25 0.070313-0.0625 0.15625-0.09375 0.25-0.09375 0.10156 0 0.1875 0.03125 0.25 0.09375s0.09375 0.14844 0.09375 0.25z"/>
</g>
</g>
<g>
<g transform="translate(275.76 210.4)">
<path d="m1.5469-0.34375c0 0.10547-0.03125 0.1875-0.09375 0.25s-0.14844 0.09375-0.25 0.09375c-0.09375 0-0.17188-0.03125-0.23438-0.09375s-0.09375-0.14453-0.09375-0.25v-5.1875c0-0.10156 0.03125-0.1875 0.09375-0.25s0.14062-0.09375 0.23438-0.09375c0.10156 0 0.1875 0.03125 0.25 0.09375s0.09375 0.14844 0.09375 0.25zm-0.34375-6.2812c-0.14844 0-0.26172-0.035156-0.34375-0.10938-0.085937-0.070313-0.125-0.17578-0.125-0.3125v-0.10938c0-0.13281 0.039063-0.23828 0.125-0.3125 0.082031-0.070312 0.20312-0.10938 0.35938-0.10938 0.30078 0 0.45312 0.14062 0.45312 0.42188v0.10938c0 0.13672-0.042969 0.24219-0.125 0.3125-0.074219 0.074219-0.1875 0.10938-0.34375 0.10938z"/>
</g>
</g>
<g>
<g transform="translate(278.86 210.4)">
<path d="m5.7656-3.2188c0 0.09375-0.039063 0.17188-0.10938 0.23438-0.0625 0.0625-0.13672 0.09375-0.21875 0.09375h-4.2812c0 0.44922 0.09375 0.85547 0.28125 1.2188 0.1875 0.35547 0.45312 0.63672 0.79688 0.84375 0.34375 0.21094 0.75 0.3125 1.2188 0.3125 0.35156 0 0.67188-0.070313 0.95312-0.21875 0.28906-0.15625 0.52344-0.35156 0.70312-0.59375 0.082031-0.0625 0.16016-0.09375 0.23438-0.09375 0.070312 0 0.14062 0.03125 0.20312 0.09375 0.0625 0.054687 0.09375 0.12109 0.09375 0.20312 0 0.085938-0.039063 0.16406-0.10938 0.23438-0.25 0.29297-0.55859 0.53125-0.92188 0.71875-0.36719 0.1875-0.75 0.28125-1.1562 0.28125-0.57422 0-1.0859-0.11719-1.5312-0.35938-0.44922-0.25-0.79688-0.59766-1.0469-1.0469-0.24219-0.45703-0.35938-0.97656-0.35938-1.5625 0-0.61328 0.11719-1.1484 0.35938-1.6094 0.25-0.46875 0.57812-0.82031 0.98438-1.0625 0.40625-0.25 0.83594-0.375 1.2969-0.375 0.44531 0 0.86719 0.10547 1.2656 0.3125 0.39453 0.21094 0.71875 0.51562 0.96875 0.92188s0.375 0.89062 0.375 1.4531zm-2.6094-2.0312c-0.4375 0-0.84375 0.15234-1.2188 0.45312-0.375 0.30469-0.61719 0.73438-0.71875 1.2969h3.8594v-0.09375c-0.042969-0.33203-0.15625-0.625-0.34375-0.875-0.1875-0.25781-0.42188-0.45312-0.70312-0.57812-0.28125-0.13281-0.57422-0.20312-0.875-0.20312z"/>
</g>
</g>
<g>
<g transform="translate(285.82 210.4)">
<path d="m3.5938-5.9062c0.14453 0 0.28125 0.03125 0.40625 0.09375 0.125 0.054688 0.1875 0.14062 0.1875 0.26562 0 0.10547-0.03125 0.1875-0.09375 0.25s-0.13672 0.09375-0.21875 0.09375c-0.042969 0-0.12109-0.015625-0.23438-0.046875-0.10547-0.039062-0.20312-0.0625-0.29688-0.0625-0.28125 0-0.5625 0.10938-0.84375 0.32812-0.27344 0.21094-0.49609 0.48438-0.67188 0.82812-0.17969 0.33594-0.26562 0.67969-0.26562 1.0312v2.7812c0 0.10547-0.03125 0.1875-0.09375 0.25s-0.14062 0.09375-0.23438 0.09375c-0.10547 0-0.1875-0.03125-0.25-0.09375s-0.09375-0.14453-0.09375-0.25v-5.0625c0-0.09375 0.03125-0.17188 0.09375-0.23438s0.14453-0.09375 0.25-0.09375c0.09375 0 0.17188 0.03125 0.23438 0.09375s0.09375 0.14062 0.09375 0.23438v1c0.17578-0.42578 0.4375-0.78125 0.78125-1.0625 0.35156-0.28125 0.76953-0.42578 1.25-0.4375z"/>
</g>
</g>
<g>
<g transform="translate(290.85 210.4)">
<path d="m0.5625-0.92188c-0.0625-0.09375-0.09375-0.17188-0.09375-0.23438 0-0.10156 0.050781-0.17969 0.15625-0.23438 0.039062-0.039063 0.097656-0.0625 0.17188-0.0625 0.09375 0 0.17578 0.039063 0.25 0.10938 0.44531 0.58594 1.0391 0.875 1.7812 0.875 0.35156 0 0.66406-0.082031 0.9375-0.25 0.26953-0.16406 0.40625-0.41016 0.40625-0.73438 0-0.32031-0.125-0.5625-0.375-0.71875s-0.60156-0.28906-1.0469-0.40625c-0.625-0.15625-1.1172-0.35938-1.4688-0.60938-0.35547-0.25-0.53125-0.61719-0.53125-1.1094 0-0.3125 0.085938-0.58594 0.26562-0.82812 0.17578-0.25 0.41016-0.44141 0.70312-0.57812 0.30078-0.13281 0.64062-0.20312 1.0156-0.20312 0.32031 0 0.64453 0.0625 0.96875 0.1875 0.33203 0.125 0.61328 0.32422 0.84375 0.59375 0.070313 0.054688 0.10938 0.125 0.10938 0.21875s-0.039062 0.17188-0.10938 0.23438c-0.054687 0.054687-0.12109 0.078125-0.20312 0.078125-0.085938 0-0.15234-0.03125-0.20312-0.09375-0.1875-0.20703-0.40625-0.36328-0.65625-0.46875-0.24219-0.10156-0.50781-0.15625-0.79688-0.15625-0.35547 0-0.65625 0.085938-0.90625 0.25-0.25 0.16797-0.375 0.41797-0.375 0.75 0.007812 0.30469 0.14453 0.53125 0.40625 0.6875 0.25781 0.15625 0.64062 0.29688 1.1406 0.42188 0.39453 0.10547 0.71875 0.21875 0.96875 0.34375 0.25781 0.11719 0.46875 0.28125 0.625 0.5 0.16406 0.21875 0.25 0.51172 0.25 0.875 0 0.49219-0.19922 0.88281-0.59375 1.1719-0.38672 0.28125-0.87109 0.42188-1.4531 0.42188-0.91797 0-1.6484-0.34375-2.1875-1.0312z"/>
</g>
</g>
</svg>
